solid OpenSCAD_Model
  facet normal -1 0 0
    outer loop
      vertex -1 -1 0
      vertex -1 86 5
      vertex -1 86 0
    endloop
  endfacet
  facet normal -1 -0 0
    outer loop
      vertex -1 86 5
      vertex -1 -1 0
      vertex -1 -1 5
    endloop
  endfacet
  facet normal 0 0 1
    outer loop
      vertex 83 86 5
      vertex 0 85 5
      vertex 83 85 5
    endloop
  endfacet
  facet normal 0 0 1
    outer loop
      vertex 0 85 5
      vertex -1 86 5
      vertex 0 0 5
    endloop
  endfacet
  facet normal -0 0 1
    outer loop
      vertex -1 86 5
      vertex 0 85 5
      vertex 83 86 5
    endloop
  endfacet
  facet normal 0 0 1
    outer loop
      vertex 91 86 5
      vertex 90 85 5
      vertex 91 -1 5
    endloop
  endfacet
  facet normal -0 0 1
    outer loop
      vertex 87.5 86 5
      vertex 90 85 5
      vertex 91 86 5
    endloop
  endfacet
  facet normal 0 0 1
    outer loop
      vertex 90 85 5
      vertex 87.5 86 5
      vertex 87.5 85 5
    endloop
  endfacet
  facet normal -0 0 1
    outer loop
      vertex 90 0 5
      vertex 91 -1 5
      vertex 90 85 5
    endloop
  endfacet
  facet normal -0 0 1
    outer loop
      vertex 0 0 5
      vertex 91 -1 5
      vertex 90 0 5
    endloop
  endfacet
  facet normal 0 0 1
    outer loop
      vertex 0 0 5
      vertex -1 -1 5
      vertex 91 -1 5
    endloop
  endfacet
  facet normal 0 0 1
    outer loop
      vertex -1 -1 5
      vertex 0 0 5
      vertex -1 86 5
    endloop
  endfacet
  facet normal 1 -0 0
    outer loop
      vertex 91 -1 5
      vertex 91 86 0
      vertex 91 86 5
    endloop
  endfacet
  facet normal 1 0 0
    outer loop
      vertex 91 86 0
      vertex 91 -1 5
      vertex 91 -1 0
    endloop
  endfacet
  facet normal 0 0 -1
    outer loop
      vertex -1 -1 0
      vertex 91 86 0
      vertex 91 -1 0
    endloop
  endfacet
  facet normal -0 0 -1
    outer loop
      vertex 91 86 0
      vertex -1 -1 0
      vertex -1 86 0
    endloop
  endfacet
  facet normal 0 -1 0
    outer loop
      vertex -1 -1 0
      vertex 91 -1 5
      vertex -1 -1 5
    endloop
  endfacet
  facet normal 0 -1 -0
    outer loop
      vertex 91 -1 5
      vertex -1 -1 0
      vertex 91 -1 0
    endloop
  endfacet
  facet normal 0 1 0
    outer loop
      vertex 91 86 5
      vertex 87.5 86 1.5
      vertex 87.5 86 5
    endloop
  endfacet
  facet normal 0 1 0
    outer loop
      vertex 87.5 86 1.5
      vertex 91 86 0
      vertex 83 86 1.5
    endloop
  endfacet
  facet normal 0 1 -0
    outer loop
      vertex 91 86 0
      vertex 87.5 86 1.5
      vertex 91 86 5
    endloop
  endfacet
  facet normal 0 1 -0
    outer loop
      vertex 83 86 1.5
      vertex -1 86 5
      vertex 83 86 5
    endloop
  endfacet
  facet normal 0 1 0
    outer loop
      vertex -1 86 0
      vertex 83 86 1.5
      vertex 91 86 0
    endloop
  endfacet
  facet normal 0 1 0
    outer loop
      vertex 83 86 1.5
      vertex -1 86 0
      vertex -1 86 5
    endloop
  endfacet
  facet normal 1 -0 0
    outer loop
      vertex 1 1 4
      vertex 1 84 1.5
      vertex 1 84 4
    endloop
  endfacet
  facet normal 1 0 0
    outer loop
      vertex 1 84 1.5
      vertex 1 1 4
      vertex 1 1 1.5
    endloop
  endfacet
  facet normal -1 0 0
    outer loop
      vertex 89 1 1.5
      vertex 89 84 4
      vertex 89 84 1.5
    endloop
  endfacet
  facet normal -1 -0 0
    outer loop
      vertex 89 84 4
      vertex 89 1 1.5
      vertex 89 1 4
    endloop
  endfacet
  facet normal 0 -1 0
    outer loop
      vertex 1 84 1.5
      vertex 83 84 4
      vertex 1 84 4
    endloop
  endfacet
  facet normal 0 -1 -0
    outer loop
      vertex 83 84 4
      vertex 1 84 1.5
      vertex 83 84 1.5
    endloop
  endfacet
  facet normal 0 -1 0
    outer loop
      vertex 87.5 84 1.5
      vertex 89 84 4
      vertex 87.5 84 4
    endloop
  endfacet
  facet normal 0 -1 -0
    outer loop
      vertex 89 84 4
      vertex 87.5 84 1.5
      vertex 89 84 1.5
    endloop
  endfacet
  facet normal 0 0 1
    outer loop
      vertex 87.5 86 1.5
      vertex 83 86 1.5
      vertex 87.5 84 1.5
    endloop
  endfacet
  facet normal -0 0 1
    outer loop
      vertex 87.5 84 1.5
      vertex 89 1 1.5
      vertex 89 84 1.5
    endloop
  endfacet
  facet normal 0 0 1
    outer loop
      vertex 83 84 1.5
      vertex 87.5 84 1.5
      vertex 83 86 1.5
    endloop
  endfacet
  facet normal 0 0 1
    outer loop
      vertex 87.5 84 1.5
      vertex 83 84 1.5
      vertex 89 1 1.5
    endloop
  endfacet
  facet normal 0 0 1
    outer loop
      vertex 1 1 1.5
      vertex 83 84 1.5
      vertex 1 84 1.5
    endloop
  endfacet
  facet normal 0 0 1
    outer loop
      vertex 83 84 1.5
      vertex 1 1 1.5
      vertex 89 1 1.5
    endloop
  endfacet
  facet normal 0 1 -0
    outer loop
      vertex 89 1 1.5
      vertex 1 1 4
      vertex 89 1 4
    endloop
  endfacet
  facet normal 0 1 0
    outer loop
      vertex 1 1 4
      vertex 89 1 1.5
      vertex 1 1 1.5
    endloop
  endfacet
  facet normal 1 -0 0
    outer loop
      vertex 0 0 5
      vertex 0 85 4
      vertex 0 85 5
    endloop
  endfacet
  facet normal 1 0 0
    outer loop
      vertex 0 85 4
      vertex 0 0 5
      vertex 0 0 4
    endloop
  endfacet
  facet normal -1 0 0
    outer loop
      vertex 90 0 4
      vertex 90 85 5
      vertex 90 85 4
    endloop
  endfacet
  facet normal -1 -0 0
    outer loop
      vertex 90 85 5
      vertex 90 0 4
      vertex 90 0 5
    endloop
  endfacet
  facet normal 0 0 1
    outer loop
      vertex 83 85 4
      vertex 1 84 4
      vertex 83 84 4
    endloop
  endfacet
  facet normal 0 0 1
    outer loop
      vertex 1 84 4
      vertex 0 85 4
      vertex 1 1 4
    endloop
  endfacet
  facet normal -0 0 1
    outer loop
      vertex 0 85 4
      vertex 1 84 4
      vertex 83 85 4
    endloop
  endfacet
  facet normal 0 0 1
    outer loop
      vertex 90 85 4
      vertex 89 84 4
      vertex 90 0 4
    endloop
  endfacet
  facet normal -0 0 1
    outer loop
      vertex 87.5 85 4
      vertex 89 84 4
      vertex 90 85 4
    endloop
  endfacet
  facet normal 0 0 1
    outer loop
      vertex 89 84 4
      vertex 87.5 85 4
      vertex 87.5 84 4
    endloop
  endfacet
  facet normal -0 0 1
    outer loop
      vertex 89 1 4
      vertex 90 0 4
      vertex 89 84 4
    endloop
  endfacet
  facet normal -0 0 1
    outer loop
      vertex 1 1 4
      vertex 90 0 4
      vertex 89 1 4
    endloop
  endfacet
  facet normal 0 0 1
    outer loop
      vertex 1 1 4
      vertex 0 0 4
      vertex 90 0 4
    endloop
  endfacet
  facet normal 0 0 1
    outer loop
      vertex 0 0 4
      vertex 1 1 4
      vertex 0 85 4
    endloop
  endfacet
  facet normal 0 1 -0
    outer loop
      vertex 90 0 4
      vertex 0 0 5
      vertex 90 0 5
    endloop
  endfacet
  facet normal 0 1 0
    outer loop
      vertex 0 0 5
      vertex 90 0 4
      vertex 0 0 4
    endloop
  endfacet
  facet normal 0 -1 0
    outer loop
      vertex 87.5 85 4
      vertex 90 85 5
      vertex 87.5 85 5
    endloop
  endfacet
  facet normal 0 -1 -0
    outer loop
      vertex 90 85 5
      vertex 87.5 85 4
      vertex 90 85 4
    endloop
  endfacet
  facet normal 0 -1 0
    outer loop
      vertex 0 85 4
      vertex 83 85 5
      vertex 0 85 5
    endloop
  endfacet
  facet normal 0 -1 -0
    outer loop
      vertex 83 85 5
      vertex 0 85 4
      vertex 83 85 4
    endloop
  endfacet
  facet normal 1 0 0
    outer loop
      vertex 83 85 4
      vertex 83 86 5
      vertex 83 85 5
    endloop
  endfacet
  facet normal 1 0 0
    outer loop
      vertex 83 86 5
      vertex 83 85 4
      vertex 83 86 1.5
    endloop
  endfacet
  facet normal 1 0 0
    outer loop
      vertex 83 84 1.5
      vertex 83 85 4
      vertex 83 84 4
    endloop
  endfacet
  facet normal 1 0 0
    outer loop
      vertex 83 85 4
      vertex 83 84 1.5
      vertex 83 86 1.5
    endloop
  endfacet
  facet normal -1 0 0
    outer loop
      vertex 87.5 86 1.5
      vertex 87.5 85 4
      vertex 87.5 86 5
    endloop
  endfacet
  facet normal -1 0 0
    outer loop
      vertex 87.5 84 1.5
      vertex 87.5 85 4
      vertex 87.5 86 1.5
    endloop
  endfacet
  facet normal -1 -0 0
    outer loop
      vertex 87.5 85 4
      vertex 87.5 84 1.5
      vertex 87.5 84 4
    endloop
  endfacet
  facet normal -1 -0 0
    outer loop
      vertex 87.5 86 5
      vertex 87.5 85 4
      vertex 87.5 85 5
    endloop
  endfacet
endsolid OpenSCAD_Model
